# xmcd CD database file
#
# Track frame offsets:
#	150
#	20561
#	46536
#	66922
#	87627
#	110695
#	138226
#	158034
#	179288
#	204582
#	224098
#	242966
#
# Disc length: 3520 seconds
#
# Revision: 10
# Processed by: cddbd v1.5.2PL0 Copyright (c) Steve Scherf et al.
# Submitted via: CDex 1.51
#
DISCID=b00dbe0c
DTITLE=???? - THE BEST Love Winters
DYEAR=1900
DGENRE=Other
TTITLE0=????????
TTITLE1=???Birthday
TTITLE2=???????
TTITLE3=????????
TTITLE4=??????????????
TTITLE5=DEAR...again(Ver.2.05)
TTITLE6=??????
TTITLE7=promise
TTITLE8=?????
TTITLE9=Groovy!
TTITLE10=???????
TTITLE11=Always I Need
EXTD=
EXTT0=
EXTT1=
EXTT2=
EXTT3=
EXTT4=
EXTT5=
EXTT6=
EXTT7=
EXTT8=
EXTT9=
EXTT10=
EXTT11=
PLAYORDER=
